<svg xmlns="http://www.w3.org/2000/svg" viewBox="0 0 722.98 1748.97"><defs><style>.cls-1{fill:#c8cbcc;}.cls-2{fill:#1e2d46;}.cls-3{fill:#fe8572;}.cls-4{fill:#e6e6e6;}.cls-5{fill:#7c91a8;}.cls-6{fill:#1a1a1a;}.cls-7{fill:#4b576b;}.cls-8{fill:#f5b02f;}.cls-9{fill:#b04f2e;}.cls-10{fill:#fff;}.cls-11{fill:#b88423;}</style></defs><g id="Layer_2" data-name="Layer 2"><g id="creation_people_character" data-name="creation people character"><g id="avatar"><path class="cls-1" d="M703.94,1717.06H82.4a19.09,19.09,0,0,1-19-19h0a19.09,19.09,0,0,1,19-19H703.94a19.1,19.1,0,0,1,19,19h0A19.1,19.1,0,0,1,703.94,1717.06Z"/><path class="cls-1" d="M669.84,1749H427.9a8.93,8.93,0,0,1-8.9-8.91h0a8.93,8.93,0,0,1,8.9-8.9H669.84a8.93,8.93,0,0,1,8.9,8.9h0A8.93,8.93,0,0,1,669.84,1749Z"/><path class="cls-1" d="M250.84,1696.8H8.9a8.93,8.93,0,0,1-8.9-8.91H0a8.93,8.93,0,0,1,8.9-8.9H250.84a8.93,8.93,0,0,1,8.9,8.9h0A8.93,8.93,0,0,1,250.84,1696.8Z"/><rect class="cls-1" x="459.75" y="1693.44" width="137.03" height="47.81"/><path class="cls-2" d="M517.94,783.46c-9.88-47.76-60.12-145.89-60.12-145.89H282.42S232.17,735.7,222.3,783.46s6.51,89.86,30.06,104.5,117.76,16.48,117.76,16.48,94.21-1.83,117.76-16.48S527.82,831.22,517.94,783.46Z"/><path class="cls-3" d="M258.79,1340c4.3,92.92,6.55,228.1,8.25,244.57,2.16,21.06,52.48-6.67,52.48-6.67s14.9-117,23.25-236.42C314.77,1341.27,286.79,1340.12,258.79,1340Z"/><path class="cls-4" d="M331.63,1561.05H260.41l-3.1,28.76s-26.32,35.52-19.09,52.55,82.06,15.73,88.25,4.1S331.63,1561.05,331.63,1561.05Z"/><path class="cls-5" d="M329,1617.14s-28.21-62.52-85.24-16.12L230,1634.68s-34.75,16.66-34.75,63.76H340.75v-86.33c0-13.93-7-33-9.05-26.85C328.74,1594,329,1617.14,329,1617.14Z"/><path class="cls-2" d="M293.15,1210.47c29.21,0,62.76-22.57,62.76-48.34l10.88-272.08c0-25.77-46.11-99.6-46.11-99.6-29.49,0-101.16-1.16-101.16,24.61l20,348.55C239.54,1189.38,272.07,1210.47,293.15,1210.47Z"/><path class="cls-2" d="M299.45,1093.61c-39.42,0-60.2,29.84-60.2,58.48l13.95,333.44c0,28.65,89.57,28.18,89.57-.47,0,0,7.28-135.72,8.62-188.11s6.22-154.49,6.22-154.49C357.61,1113.81,338.87,1093.61,299.45,1093.61Z"/><path class="cls-6" d="M293.13,1642a1.48,1.48,0,0,0,1.08-.46,1.5,1.5,0,0,0,0-2.12,85.5,85.5,0,0,0-57.39-23.25h0a1.5,1.5,0,0,0,0,3,82.52,82.52,0,0,1,55.35,22.42A1.47,1.47,0,0,0,293.13,1642Z"/><path class="cls-6" d="M233.4,1639.88a1.46,1.46,0,0,0,.95-.34,106,106,0,0,1,56.58-23.38,1.5,1.5,0,0,0,1.35-1.64,1.51,1.51,0,0,0-1.63-1.35,109,109,0,0,0-58.2,24,1.5,1.5,0,0,0,1,2.66Z"/><path class="cls-6" d="M295.4,1607.47a1.51,1.51,0,0,0,.71-2.83,76.89,76.89,0,0,0-50.8-7.41,1.5,1.5,0,0,0,.6,2.94,73.81,73.81,0,0,1,48.78,7.12A1.53,1.53,0,0,0,295.4,1607.47Z"/><path class="cls-6" d="M248.11,1609.92a1.52,1.52,0,0,0,.94-.33c12.61-10.09,32.33-17.12,50.23-17.92a1.5,1.5,0,1,0-.13-3c-18.5.82-38.9,8.11-52,18.57a1.5,1.5,0,0,0,.94,2.67Z"/><path class="cls-3" d="M480.87,1337.73c-4.31,92.92-6.56,228.1-8.25,244.57-2.17,21.06-52.48-6.67-52.48-6.67s-14.91-117-23.25-236.42C424.88,1339,452.87,1337.87,480.87,1337.73Z"/><path class="cls-4" d="M408,1558.81h71.23l3.09,28.76s26.33,35.52,19.1,52.55-82.06,15.73-88.26,4.1S408,1558.81,408,1558.81Z"/><path class="cls-5" d="M410.65,1614.9s28.22-62.53,85.24-16.12l13.81,33.66s34.75,16.66,34.75,63.75H398.9v-86.32c0-13.93,7-33,9.06-26.85C410.92,1591.79,410.65,1614.9,410.65,1614.9Z"/><path class="cls-6" d="M443.78,1639.44a1.5,1.5,0,0,1-1-2.59,85.54,85.54,0,0,1,57.39-23.24h0a1.5,1.5,0,0,1,0,3A82.47,82.47,0,0,0,444.81,1639,1.51,1.51,0,0,1,443.78,1639.44Z"/><path class="cls-6" d="M501.16,1634.83a1.5,1.5,0,0,1-1-.34,105.92,105.92,0,0,0-56.58-23.38,1.5,1.5,0,1,1,.29-3,109,109,0,0,1,58.2,24.05,1.5,1.5,0,0,1-1,2.66Z"/><path class="cls-6" d="M441.5,1604.92a1.5,1.5,0,0,1-.71-2.82,76.9,76.9,0,0,1,50.8-7.42,1.5,1.5,0,1,1-.6,2.94,73.81,73.81,0,0,0-48.78,7.12A1.53,1.53,0,0,1,441.5,1604.92Z"/><path class="cls-6" d="M488.79,1607.38a1.52,1.52,0,0,1-.94-.33c-12.61-10.09-32.33-17.13-50.23-17.92a1.5,1.5,0,0,1,.13-3c18.5.82,38.9,8.11,52,18.58a1.5,1.5,0,0,1-.94,2.67Z"/><path class="cls-2" d="M446.51,1208.23c-29.21,0-62.76-22.57-62.76-48.34L372.87,887.81c0-25.77,46.11-99.6,46.11-99.6,29.49,0,101.16-1.16,101.16,24.61l-20,348.55C500.12,1187.14,467.58,1208.23,446.51,1208.23Z"/><path class="cls-2" d="M440.21,1091.37c39.42,0,60.2,29.83,60.2,58.48l-14,333.44c0,28.65-89.56,28.18-89.56-.47,0,0-7.28-135.72-8.62-188.11s-6.22-154.49-6.22-154.49C382.05,1111.57,400.79,1091.37,440.21,1091.37Z"/><path class="cls-7" d="M403.7,1189.49c15.44,13.11,37.8,16.82,56.9,10.35a54.26,54.26,0,0,0,15-7.78c1.53-1.13,0-3.74-1.52-2.59-15.49,11.47-36.77,13.45-54.5,6.24a51,51,0,0,1-13.77-8.35c-1.47-1.24-3.6.87-2.12,2.13Z"/><path class="cls-7" d="M273.62,1198a66.29,66.29,0,0,0,47.64,6.16,64.35,64.35,0,0,0,13-4.8c1.73-.86.21-3.44-1.52-2.59a63.12,63.12,0,0,1-45.36,3.77,60.14,60.14,0,0,1-12.29-5.13c-1.69-.93-3.21,1.66-1.51,2.59Z"/><path class="cls-7" d="M335.06,1212.66l-20.1,1.83c-1.91.18-1.93,3.18,0,3l20.1-1.83c1.91-.17,1.93-3.17,0-3Z"/><path class="cls-7" d="M389.8,898.44l35.45-15.85c1.76-.79.24-3.37-1.51-2.59l-35.45,15.85c-1.76.78-.24,3.37,1.51,2.59Z"/><path class="cls-7" d="M392.29,908l26.32,1.52c1.93.11,1.93-2.89,0-3L392.29,905c-1.93-.11-1.92,2.89,0,3Z"/><path class="cls-7" d="M368.56,897.93l-21.68-27.87c-1.18-1.53-3.29.61-2.12,2.12l21.68,27.87c1.18,1.52,3.29-.62,2.12-2.12Z"/><path class="cls-7" d="M370.55,801.42q.07,15.63.16,31.25,0,7.68.08,15.37c0,4.61-.52,9.75.95,14.2,1.4,4.25,5.23,7.7,9.91,6.92,1.9-.32,1.09-3.21-.8-2.89-3.91.65-6.18-3.72-6.72-6.88a39,39,0,0,1-.31-6.39c0-2.31,0-4.63,0-6.94l-.15-28.52q0-8.06-.08-16.12a1.5,1.5,0,0,0-3,0Z"/><path class="cls-7" d="M381.48,809.18v35.61a1.5,1.5,0,0,0,3,0V809.18a1.5,1.5,0,0,0-3,0Z"/><path class="cls-8" d="M520.75,761.86C509.18,702.64,533.9,354.15,529.41,349c-9.5-10.88-89.46-37.83-106.5-37.83h-108c-17.05,0-97,26.95-106.51,37.83-4.48,5.13,20.24,353.39,8.73,412.48C210,798,527.86,798.25,520.75,761.86Z"/><path class="cls-8" d="M192.71,352c18.44-11.42,86.84-12.91,50.18,104.54C212.47,554,211.46,615.91,198,646c-13.88,30.9-85.74,50.18-94.19,6.47S157.8,373.66,192.71,352Z"/><path class="cls-3" d="M340.61,360.8C314.45,327.62,302,315.54,302,315.54s31.15-7.35,64.8-7.35,64.79,7.35,64.79,7.35S419.12,327.62,393,360.8C382.47,374.11,351.1,374.11,340.61,360.8Z"/><path class="cls-3" d="M411.37,316.28l-11.58-95.71h-66L322.2,316.28a16,16,0,0,0,15.88,17.92h57.41A16,16,0,0,0,411.37,316.28Z"/><path class="cls-6" d="M333.79,220.57l-8.84,73c27.63,13.58,58.2,5,81.69-16.33l-6.85-56.65Z"/><path class="cls-3" d="M463.36,96.06C462.7,53,402.73,19.91,368.74,19.87h0l-12.34.19h0c-34,1.08-92.91,36-92.25,79.06,0,0,11.3,88,17.29,122.53s65.56,73.19,85.34,73.19,78.13-41.08,83.06-75.77S463.36,96.06,463.36,96.06Z"/><path class="cls-3" d="M281.75,219.4c-7.67-4.72-15.39-9.49-21.85-15.35s-11.65-13-13.15-20.65-1.79-17.19,8.13-20.65c8.33-2.89,25.79,15.28,25.79,15.28Z"/><path class="cls-3" d="M445.14,216.9c7.52-5,15.09-10,21.37-16s11.25-13.32,12.51-21,1.27-17.24-8.76-20.39c-8.41-2.64-25.31,16.07-25.31,16.07Z"/><path class="cls-9" d="M367.17,209.43c.58-.25,2-.92,2.1-1.71s-3-1-4.61-1.37-3.15-1.36-3.37-3c-.26-2.06,1.69-4,2-6.12a3,3,0,0,0,0-.43c-.88-1.74-2.77-1.22-3.84-.08A7,7,0,0,0,358,199.4a12.58,12.58,0,0,0-.68,6.38,5.76,5.76,0,0,0,3.64,4.53C362.94,211,365.1,210.32,367.17,209.43Z"/><path class="cls-6" d="M398.94,162.35c5.55-2.84,12.3-.55,15.79,5.28a1.49,1.49,0,0,0,2.16.67,2.11,2.11,0,0,0,.57-2.57,17.26,17.26,0,0,0-8.53-7.47,14.16,14.16,0,0,0-11.59.85,2.09,2.09,0,0,0-.57,2.56,1.5,1.5,0,0,0,2.17.68Z"/><path class="cls-6" d="M333.13,162.5c-5.51-2.91-12.29-.71-15.86,5.06a1.48,1.48,0,0,1-2.17.64,2.09,2.09,0,0,1-.53-2.57,17.21,17.21,0,0,1,8.63-7.35,14.14,14.14,0,0,1,11.57,1,2.09,2.09,0,0,1,.54,2.57,1.49,1.49,0,0,1-2.18.64Z"/><path class="cls-6" d="M415.12,180.19c-.2,6.34-4.83,11.09-9.95,10.91s-8.8-5.23-8.59-11.57,4.52-11.34,9.64-11.16S415.33,173.84,415.12,180.19Z"/><path class="cls-6" d="M317.33,179.07c-.21,6.34,3.28,11.85,8.41,12s9.93-5,10.13-11.37-3.77-11.63-8.9-11.82S317.54,172.73,317.33,179.07Z"/><path class="cls-10" d="M401.29,214.1c-29.74,6.31-58.38,4.06-74.77,1.85,2.83,13.38,20.88,24.77,36.41,24.54C383.28,240.17,396.86,231.28,401.29,214.1Z"/><path class="cls-2" d="M477.93,110.12c4.41-.44,8.3-4.74,7.62-9.3a31.06,31.06,0,0,0-6.77-15.28,8.92,8.92,0,0,0,5.48-4.74c1.95-4.44-.28-9.07-4.37-11.2A121.83,121.83,0,0,0,466,63.41l-.34-.47a8.4,8.4,0,0,0,2.4-3c2-4.64-.41-8.83-4.37-11.2a104.88,104.88,0,0,0-15.9-7.78c4.13-3.83,4.79-11.38-2-13.86a37,37,0,0,0-22.66-1.21A52.4,52.4,0,0,0,406.66,4.27c-5.57-4.3-12-.32-13.5,4.85a37.78,37.78,0,0,0-12.4-7.68,8.69,8.69,0,0,0-11.2,4.37A7.71,7.71,0,0,0,369,7.64a34.69,34.69,0,0,0-16-7.47c-5-.94-8.2,2.14-9.19,5.91A45.81,45.81,0,0,0,317.66,6c-3.06.86-5,3.85-5.38,7a67.8,67.8,0,0,0-13.88,2.63c-5,1.49-6.26,5.92-5,9.79-8.33,1.64-15.91,5.36-19.47,13.17a7.66,7.66,0,0,0,2.43,9.73c-8.9,3.79-15.64,12.93-16,22.64a11.72,11.72,0,0,0,.6,4.16,22.2,22.2,0,0,0-8.67,11.48c-1.33,4.23-.23,9.42,4.37,11.2l.21.07a22.84,22.84,0,0,0-5.95,13.33c-.39,4.58,2.29,9,7.06,9.73a8.27,8.27,0,0,0,3-.11c0,.28.09.58.14.86a36.57,36.57,0,0,0-6.36,19c-.17,4.59,2.16,8.95,7.07,9.73a8.4,8.4,0,0,0,3.73-.33,40.41,40.41,0,0,0-1.34,19.89,10.2,10.2,0,0,0,2,4.45c-.54.59-1.08,1.18-1.65,1.75-3.22,3.27-2,9.3,1.35,11.95,3.89,3.11,8.71,1.93,11.95-1.35A66.72,66.72,0,0,0,295,154.85a8.76,8.76,0,0,0,.22-1.46c19-2.07,35-6.5,51-16.5a8,8,0,0,0,10.14,3.92,88.39,88.39,0,0,0,11.43-5.19s0,0,0,.06c1.69,4.5,6.55,6.35,10.94,5a40.92,40.92,0,0,0,17.59-11.11c1.67,4.77,7.57,8.48,13.18,4.91a103.31,103.31,0,0,0,14.74-11c-.23,2.35-.43,4.71-.57,7.07-.28,4.58,2.22,9,7.07,9.73a8.92,8.92,0,0,0,5.44-1,8.94,8.94,0,0,0-.08,2.5c1.39,13.25,5,28.67,15.67,37.59,6.35,5.31,14-1,13.67-7.42a8,8,0,0,0,8.17-.83c3.43-2.5,4.95-8.43,1.88-11.88-3.69-4.13-2.9-10.63-3.14-16.36a9.65,9.65,0,0,0,5.32-6.58c2.48-9.12,1-18.36-3.28-26.57A8.05,8.05,0,0,0,477.93,110.12Z"/><path class="cls-8" d="M110.56,608c-12.25,46.07-6,55.17,3.43,78.22s99.59,170.83,99.59,170.83l68.82-57.69S210.48,677.3,206.34,656.61c-1.08-5.41-2.84-19.71-5.4-37.39C191.32,552.78,129.33,537.44,110.56,608Z"/><path class="cls-3" d="M273.81,806.6l18.43,22.9s-26,23.71-61.17,32.39l-7.6-13.1S228.21,821.73,273.81,806.6Z"/><path class="cls-8" d="M540.15,352c-18.44-11.42-86.84-12.91-50.18,104.54C520.39,554,521.4,615.91,534.91,646c13.88,30.9,85.74,50.18,94.19,6.47S575.07,373.66,540.15,352Z"/><path class="cls-8" d="M622.3,608c12.25,46.07,6,55.17-3.43,78.22s-99.59,170.83-99.59,170.83l-68.82-57.69s71.92-122.09,76.06-142.78c1.09-5.41,2.85-19.71,5.41-37.39C541.54,552.78,603.53,537.44,622.3,608Z"/><path class="cls-3" d="M459.06,806.6l-18.44,22.9s26,23.71,61.18,32.39l7.59-13.1S504.65,821.73,459.06,806.6Z"/><path class="cls-11" d="M520.92,583.12l2.19-62.3q1.08-31,2.18-62.06l1.23-35.14c.07-1.93-2.93-1.93-3,0l-2.19,62.31q-1.08,31-2.18,62.05l-1.23,35.14c-.07,1.93,2.93,1.93,3,0Z"/><path class="cls-11" d="M220.35,614.14,218,540.85q-1.15-36.53-2.32-73-.66-20.56-1.31-41.14c-.06-1.92-3.06-1.93-3,0q1.17,36.65,2.33,73.29T216,573q.65,20.57,1.31,41.14c.06,1.92,3.06,1.93,3,0Z"/><path class="cls-11" d="M531.26,631l20.2-8.35a1.56,1.56,0,0,0,1-1.85,1.51,1.51,0,0,0-1.85-1l-20.19,8.35a1.54,1.54,0,0,0-1.05,1.84,1.5,1.5,0,0,0,1.84,1Z"/><path class="cls-11" d="M201.06,633.79l-20.91-2.3a1.5,1.5,0,1,0,0,3l20.91,2.3a1.51,1.51,0,0,0,1.5-1.5,1.53,1.53,0,0,0-1.5-1.5Z"/></g></g></g></svg>